<svg width="64" height="73" viewBox="0 0 64 73" fill="none" xmlns="http://www.w3.org/2000/svg">
<path d="M63.6817 25.6102H42.5694V72.4102H35.5319V50.8102H28.4945V72.4102H21.457V25.6102H0.344666V18.4102H63.6817V25.6102ZM32.0132 0.410156C33.8796 0.410156 35.6696 1.16873 36.9894 2.51899C38.3092 3.86925 39.0506 5.7006 39.0506 7.61016C39.0506 9.51971 38.3092 11.3511 36.9894 12.7013C35.6696 14.0516 33.8796 14.8102 32.0132 14.8102C30.1467 14.8102 28.3567 14.0516 27.037 12.7013C25.7172 11.3511 24.9757 9.51971 24.9757 7.61016C24.9757 3.61416 28.1074 0.410156 32.0132 0.410156Z" fill="#EC5863"/>
</svg>
