<svg width="67" height="73" viewBox="0 0 67 73" fill="none" xmlns="http://www.w3.org/2000/svg">
<path d="M33.229 0.638428C27.4775 0.638428 24.0349 1.52458 21.8466 2.6295C20.7511 3.18335 19.9732 3.76489 19.4501 4.36027C18.9243 4.95566 18.5929 5.83074 18.5929 5.83074C18.507 6.05314 18.4499 6.28584 18.4231 6.52304L16.966 25.4757C16.9469 25.592 16.9852 25.7803 16.966 25.9077L16.7962 27.8129C16.7803 27.9851 16.7803 28.1585 16.7962 28.3307C16.7962 37.4692 24.191 44.9461 33.229 44.9461C42.267 44.9461 49.6618 37.4692 49.6618 28.3307V27.8987C49.6622 27.8701 49.6622 27.8415 49.6618 27.8129L48.0349 6.52304C48.0081 6.28584 47.951 6.05314 47.8651 5.83074C47.8651 5.83074 47.5337 4.95566 47.0079 4.36027C46.4848 3.76212 45.707 3.18058 44.6114 2.6295C42.4231 1.52181 38.9805 0.638428 33.229 0.638428ZM33.229 44.9461C15.153 44.9461 0.363464 53.5474 0.363464 61.3012V72.6384H66.0945V61.3012C66.0945 53.935 52.7237 45.8212 35.8829 45.032C34.9995 44.973 34.1143 44.9444 33.229 44.9461V44.9461ZM33.229 6.17689C38.4327 6.17689 41.0318 7.00766 42.1301 7.5615C42.4971 7.74704 42.5409 7.81904 42.645 7.90766L43.7569 22.1C41.2372 22.255 37.8028 22.7923 33.229 22.7923C28.6552 22.7923 25.2235 22.255 22.7011 22.1L23.813 7.90766C23.9144 7.81904 23.9609 7.74704 24.3279 7.5615C25.4262 7.00766 28.0253 6.17689 33.229 6.17689V6.17689ZM31.0024 8.94612V12.236H27.7514V16.736H31.0051V20.023H35.4529V16.7332H38.7066V12.236H35.4529V8.94612H31.0051H31.0024ZM25.0126 51.1769L32.0322 67.1H5.84105V61.3012C5.84105 59.2381 12.825 53.1957 25.0126 51.1769ZM41.4454 51.1769C53.633 53.1984 60.617 59.2381 60.617 61.3012V67.1H34.4259L41.4454 51.1769Z" fill="#EC5863"/>
</svg>
