<svg width="87" height="73" viewBox="0 0 87 73" fill="none" xmlns="http://www.w3.org/2000/svg">
<path d="M24.2031 0.967773C17.9207 0.967773 11.8955 3.4698 7.45315 7.92344C3.01078 12.3771 0.515076 18.4175 0.515076 24.7159C0.515076 26.8748 0.902699 29.0337 1.4626 31.1927H19.0348L24.5046 16.6415C25.7967 13.1873 30.8789 12.8418 32.5155 16.6415L41.4308 39.8283L43.9719 33.697C44.5318 32.2721 46.0392 31.1927 47.8912 31.1927H85.706C86.2659 29.0337 86.6535 26.8748 86.6535 24.7159C86.6535 18.4175 84.1578 12.3771 79.7154 7.92344C75.273 3.4698 69.2479 0.967773 62.9654 0.967773C54.9545 0.967773 47.8912 4.98337 43.5843 11.0715C39.2774 4.98337 32.214 0.967773 24.2031 0.967773ZM4.822 37.6694C3.67973 37.6694 2.58425 38.1243 1.77654 38.9341C0.968839 39.7438 0.515076 40.8421 0.515076 41.9873C0.515076 43.1324 0.968839 44.2307 1.77654 45.0404C2.58425 45.8502 3.67973 46.3051 4.822 46.3051H15.3309L39.2774 70.0532C43.5843 73.9393 43.5843 73.9393 47.8912 70.0532L71.8377 46.3051H82.3466C83.4888 46.3051 84.5843 45.8502 85.392 45.0404C86.1997 44.2307 86.6535 43.1324 86.6535 41.9873C86.6535 40.8421 86.1997 39.7438 85.392 38.9341C84.5843 38.1243 83.4888 37.6694 82.3466 37.6694H49.614L45.6085 47.6005C43.8858 51.9615 38.9328 51.357 37.3392 47.73L28.5101 24.7159L24.3754 34.7765C23.7294 36.4172 22.265 37.6694 20.3269 37.6694H4.822Z" fill="#EC5863"/>
</svg>
